<svg width="941" height="471" viewBox="0 0 941 471" fill="none" xmlns="http://www.w3.org/2000/svg">
<path d="M96.0898 207.996C70.887 196.15 31.1042 217.473 31.1042 217.473C44.4345 180.472 95.9509 170.438 95.9509 170.438C100.358 158.911 108.006 148.917 117.964 141.668C127.922 134.42 139.764 130.229 152.05 129.605C145.523 126.26 120.043 128.838 120.043 128.838C160.173 66.8915 251.194 26.0583 251.194 26.0583C381.929 -39.1633 471.84 38.601 471.84 38.601C502.666 68.0064 591.258 94.346 591.258 94.346C565.014 102.847 516.969 93.8582 516.969 93.8582C556.543 113.996 642.427 100.06 642.427 100.06C651.175 97.2029 688.945 97.6907 688.945 97.6907C742.474 101.872 789.478 142.496 789.478 142.496C832.663 174.201 863.142 176.43 863.142 176.43C892.649 180.681 881.263 151.485 881.263 151.485C874.32 128.629 821.276 117.55 821.276 117.55C807.391 115.668 737.545 100.966 737.545 100.966C700.539 89.538 698.387 63.4075 698.387 63.4075C698.387 50.4468 703.802 39.7855 735.045 32.8174H735.948C767.122 26.2674 808.918 38.601 808.918 38.601C812.042 30.3089 824.331 27.3823 824.331 27.3823C827.536 26.2904 830.952 25.9674 834.304 26.4394C837.655 26.9113 840.851 28.165 843.633 30.0999C849.59 35.8906 856.049 41.1374 862.934 45.7781C857.065 45.7208 851.273 47.1085 846.063 49.8196C865.642 62.7107 891.886 41.8063 891.886 41.8063C888.484 74.8352 841.203 79.7826 841.203 79.7826C833.348 79.9002 825.653 77.5526 819.193 73.0677C812.733 68.5828 807.83 62.1846 805.169 54.767L782.049 50.3771C768.649 46.1962 739.142 49.0531 739.142 49.0531C714.147 49.0531 722.618 70.724 722.618 70.724C725.742 81.3156 755.041 85.2177 755.041 85.2177C761.984 87.2385 813.431 94.4853 813.431 94.4853C879.527 105.077 905.98 138.385 905.98 138.385C925.281 161.31 910.909 192.039 910.909 192.039C898.829 213.431 872.307 211.62 872.307 211.62C860.127 212.612 847.899 210.403 836.828 205.209C830.582 195.984 823.617 187.27 816 179.148C831.914 202.285 838.852 230.462 835.509 258.376C824.795 250.54 812.185 245.728 798.99 244.439C818.291 247.296 853.561 284.924 853.561 284.924C862.648 297.49 874.536 307.75 888.275 314.887C892.815 315.531 897.153 317.186 900.973 319.73C904.793 322.274 907.998 325.643 910.354 329.59C908.34 352.585 933.543 393.348 933.543 393.348C943.819 405.473 938.889 423.52 938.889 423.52C933.438 429.076 928.618 435.223 924.517 441.846V459.894H837.87C839.397 432.788 873.834 413.416 873.834 413.416L898.829 410.35L873.834 405.96C874.086 396.492 871.93 387.115 867.569 378.715C863.207 370.315 856.786 363.168 848.909 357.95C830.958 358.115 813.04 356.387 795.449 352.794C780.069 352.998 765.089 347.88 753.028 338.3C760.456 352.236 792.602 356.417 792.602 356.417V375.998C751.431 391.467 746.293 416.273 746.293 416.273C742.683 431.255 724.215 433.833 724.215 433.833C718.313 442.613 720.604 459.127 720.604 459.127H638.331C642.913 419.897 670.199 417.319 670.199 417.319L702.067 416.831L678.947 410.35L679.433 406.448C696.929 401.292 714.147 366.73 714.147 366.73L728.519 364.152C713.823 359.736 700.246 352.199 688.71 342.051C677.173 331.904 667.948 319.384 661.659 305.341C665.273 305.148 668.803 304.169 672.004 302.473C675.204 300.777 678 298.403 680.196 295.516C648.815 267.086 639.58 245.415 639.58 245.415C640.066 256.285 661.173 286.248 661.173 286.248L547.518 335.025C542.866 341.227 512.803 350.285 512.803 350.285C488.714 351.269 464.605 348.925 441.152 343.317C466.772 351.33 514.053 360.389 514.053 360.389C523.565 362.201 522.523 387.495 522.523 387.495C522.745 394.04 525.195 400.312 529.466 405.264C533.554 409.409 536.641 414.438 538.492 419.966C525.135 430.269 516.037 445.156 512.942 461.775L442.61 461.218C443.374 452.717 446.776 452.368 446.776 452.368H483.226L447.609 451.114C448.998 441.428 454.552 442.892 454.552 442.892L485.17 441.568L452.816 440.871C453.972 437.607 456.137 434.799 458.995 432.857H488.781L463.231 430.349C464.48 423.381 477.116 422.405 477.116 422.405L502.527 421.639L485.865 416.204L463.994 394.254C471.244 394.092 478.26 391.655 484.059 387.286C470.937 391.955 441.985 389.864 441.985 389.864L405.466 371.12C401.578 369.866 397.481 363.176 397.481 363.176C397.481 363.176 397.481 346.592 397.481 343.038C397.406 340.831 397.76 338.63 398.523 336.558C436.223 309.173 434.418 278.723 434.418 278.723C433.81 254.39 429.55 230.288 421.782 207.23C436.223 293.425 393.524 316.35 393.524 316.35C363.808 337.673 352.63 375.579 352.63 375.579C349.961 383.067 346.194 390.113 341.452 396.484C301.739 391.815 278.966 425.541 278.966 425.541C274.824 429.491 269.685 432.228 264.104 433.456C258.524 434.684 252.715 434.357 247.306 432.509C230.366 441.428 237.308 466.583 237.308 466.583L142.121 470.207C144.829 449.302 196.554 448.745 196.554 448.745C180.585 443.519 152.813 452.786 152.813 452.786L153.577 448.884C162.95 430.21 202.941 437.038 202.941 437.038C192.527 429.164 159.617 435.993 159.617 435.993C159.617 434.6 163.367 430.349 163.367 430.349C176.489 418.712 209.259 425.262 209.259 425.262C194.957 416.761 169.685 423.381 169.685 423.381L176.627 414.949C191.555 402.058 225.228 418.573 225.228 418.573C219.458 411.288 211.93 405.604 203.358 402.058C251.472 388.61 262.025 360.25 262.025 360.25C262.025 346.313 275.356 310.428 275.356 310.428C277.372 304.074 280.371 298.078 284.243 292.659L271.606 299.627C268.717 295.218 264.96 291.448 260.567 288.548C239.738 272.8 245.918 297.536 245.918 297.536C259.248 317.953 244.113 338.37 244.113 338.37V353.839L205.232 371.12C175.169 370.632 173.087 340.181 173.087 340.181L110.6 257.052L113.794 255.867C117.039 254.842 120.011 253.093 122.488 250.752C124.965 248.411 126.882 245.539 128.097 242.349C116.294 252.383 96.4369 250.502 96.4369 250.502C90.8131 248.132 53.4603 250.502 53.4603 250.502C34.0337 250.318 15.1432 256.892 -2.91472e-05 269.107C20.6898 199.634 96.0898 207.996 96.0898 207.996ZM91.2992 182.841C67.4156 183.747 58.5286 197.683 58.5286 197.683C68.6973 192.699 80.0239 190.579 91.2992 191.551V182.841ZM235.364 261.581C235.364 261.581 237.656 218.239 190.236 200.819C206.853 215.225 219.26 233.89 226.13 254.822C226.13 254.822 199.886 282.694 206.065 306.107C206.065 306.107 211.828 273.566 235.364 261.581ZM186 354.605C186 354.605 191.763 362.479 194.887 363.176C194.887 363.176 187.181 354.745 191.416 350.982C191.416 350.982 193.985 344.014 208.495 355.511C208.495 355.511 202.039 343.038 192.943 344.432C192.943 344.432 181.21 344.711 186 354.605ZM148.023 293.147L149.134 282.903C149.134 282.903 170.934 258.515 141.427 255.031L140.316 281.928C140.316 281.928 142.399 291.614 148.023 293.147ZM110.878 238.726C110.878 238.726 137.539 240.537 140.316 215.243C140.316 215.243 140.316 194.339 122.473 188.973C122.473 188.973 142.052 215.034 124.278 225.556C124.278 225.556 124.278 232.036 80.5376 232.524C80.5376 232.524 52.766 232.524 44.2956 241.791C66.3784 239.054 88.6385 238.029 110.878 238.726V238.726Z" fill="#F4B12F" fill-opacity="0.11"/>
</svg>
