<svg width="65" height="32" viewBox="0 0 65 32" fill="none" xmlns="http://www.w3.org/2000/svg">
<path d="M58.3604 14.1618C60.1031 13.3553 62.8541 14.807 62.8541 14.807C61.9323 12.2878 58.37 11.6046 58.37 11.6046C58.0652 10.8198 57.5364 10.1394 56.8478 9.64584C56.1592 9.15232 55.3404 8.86699 54.4908 8.8245C54.9421 8.59678 56.7041 8.77231 56.7041 8.77231C53.9291 4.55467 47.6351 1.77454 47.6351 1.77454C38.5949 -2.66609 32.3777 2.6285 32.3777 2.6285C30.2461 4.63058 24.1201 6.42391 24.1201 6.42391C25.9348 7.00271 29.2571 6.3907 29.2571 6.3907C26.5205 7.76179 20.5818 6.81293 20.5818 6.81293C19.9768 6.61842 17.3651 6.65163 17.3651 6.65163C13.6636 6.93629 10.4134 9.70219 10.4134 9.70219C7.42717 11.8608 5.31956 12.0126 5.31956 12.0126C3.27916 12.302 4.06651 10.3142 4.06651 10.3142C4.54661 8.75808 8.21453 8.00374 8.21453 8.00374C9.17472 7.87565 14.0045 6.87461 14.0045 6.87461C16.5634 6.09655 16.7122 4.31746 16.7122 4.31746C16.7122 3.43503 16.3377 2.70915 14.1773 2.23473H14.1149C11.9593 1.78877 9.0691 2.6285 9.0691 2.6285C8.85305 2.06394 8.00329 1.86468 8.00329 1.86468C7.78166 1.79033 7.54549 1.76835 7.31371 1.80048C7.08193 1.83261 6.861 1.91797 6.66862 2.0497C6.25668 2.44397 5.81003 2.8012 5.33396 3.11716C5.73975 3.11326 6.14032 3.20774 6.50059 3.39233C5.14672 4.27001 3.33197 2.84674 3.33197 2.84674C3.56721 5.09551 6.83666 5.43236 6.83666 5.43236C7.37978 5.44037 7.91186 5.28053 8.35858 4.97518C8.8053 4.66982 9.14435 4.2342 9.32835 3.72917L10.9271 3.43028C11.8536 3.14563 13.894 3.34014 13.894 3.34014C15.6224 3.34014 15.0367 4.8156 15.0367 4.8156C14.8206 5.53673 12.7946 5.80241 12.7946 5.80241C12.3145 5.93999 8.75703 6.43339 8.75703 6.43339C4.18653 7.15452 2.35738 9.42228 2.35738 9.42228C1.02271 10.9831 2.01651 13.0754 2.01651 13.0754C2.85187 14.5318 4.68583 14.4085 4.68583 14.4085C5.52808 14.4761 6.37361 14.3257 7.13912 13.972C7.57106 13.3439 8.05266 12.7506 8.5794 12.1977C7.47898 13.773 6.99919 15.6914 7.23033 17.5919C7.97124 17.0584 8.84322 16.7308 9.75563 16.643C8.42097 16.8375 5.98209 19.3994 5.98209 19.3994C5.3537 20.255 4.53169 20.9536 3.58162 21.4395C3.26773 21.4833 2.96774 21.596 2.70359 21.7692C2.43944 21.9424 2.21781 22.1718 2.05492 22.4405C2.19414 24.0061 0.4514 26.7815 0.4514 26.7815C-0.25914 27.607 0.081727 28.8358 0.081727 28.8358C0.458698 29.2141 0.792004 29.6325 1.07552 30.0835V31.3123H7.0671C6.96148 29.4668 4.58021 28.1479 4.58021 28.1479L2.85187 27.9391L4.58021 27.6402C4.5628 26.9955 4.71192 26.3571 5.01348 25.7852C5.31504 25.2133 5.7591 24.7267 6.30375 24.3714C7.54504 24.3827 8.78408 24.265 10.0005 24.0203C11.064 24.0343 12.0999 23.6858 12.9339 23.0335C12.4202 23.9824 10.1973 24.2671 10.1973 24.2671V25.6002C13.0443 26.6534 13.3995 28.3424 13.3995 28.3424C13.6492 29.3624 14.9262 29.5379 14.9262 29.5379C15.3343 30.1357 15.1759 31.2601 15.1759 31.2601H20.865C20.5482 28.5891 18.6614 28.4135 18.6614 28.4135L16.4578 28.3803L18.0565 27.9391L18.0229 27.6734C16.813 27.3224 15.6224 24.9692 15.6224 24.9692L14.6286 24.7937C15.6448 24.493 16.5836 23.9799 17.3814 23.289C18.1791 22.5981 18.8171 21.7456 19.2519 20.7895C19.002 20.7764 18.7579 20.7098 18.5366 20.5943C18.3153 20.4788 18.122 20.3171 17.97 20.1206C20.1401 18.1849 20.7786 16.7095 20.7786 16.7095C20.745 17.4496 19.2855 19.4896 19.2855 19.4896L27.1447 22.8106C27.4663 23.2328 29.5451 23.8496 29.5451 23.8496C31.2109 23.9166 32.878 23.7569 34.4997 23.3751C32.7282 23.9207 29.4587 24.5375 29.4587 24.5375C28.801 24.6608 28.873 26.383 28.873 26.383C28.8577 26.8286 28.6882 27.2556 28.3929 27.5928C28.1102 27.875 27.8967 28.2174 27.7688 28.5938C28.6924 29.2953 29.3215 30.3089 29.5355 31.4404L34.3989 31.4024C34.3461 30.8236 34.1108 30.7999 34.1108 30.7999H31.5903L34.0532 30.7145C33.9572 30.055 33.5731 30.1547 33.5731 30.1547L31.4559 30.0645L33.6931 30.0171C33.6133 29.7948 33.4635 29.6037 33.2659 29.4715H31.2063L32.973 29.3007C32.8866 28.8263 32.0128 28.7599 32.0128 28.7599L30.2557 28.7077L31.4079 28.3376L32.9202 26.8432C32.4189 26.8321 31.9337 26.6662 31.5327 26.3688C32.4401 26.6866 34.4421 26.5443 34.4421 26.5443L36.9674 25.2681C37.2362 25.1827 37.5195 24.7272 37.5195 24.7272C37.5195 24.7272 37.5195 23.5981 37.5195 23.3562C37.5247 23.2059 37.5003 23.056 37.4475 22.9149C34.8406 21.0504 34.9654 18.9772 34.9654 18.9772C35.0074 17.3205 35.302 15.6795 35.8392 14.1096C34.8406 19.9782 37.7932 21.5391 37.7932 21.5391C39.848 22.9908 40.6209 25.5717 40.6209 25.5717C40.8055 26.0815 41.066 26.5612 41.3939 26.995C44.14 26.6771 45.7147 28.9734 45.7147 28.9734C46.0011 29.2423 46.3565 29.4286 46.7424 29.5123C47.1283 29.5959 47.53 29.5736 47.9039 29.4478C49.0754 30.055 48.5953 31.7677 48.5953 31.7677L55.1774 32.0144C54.9901 30.5911 51.4134 30.5532 51.4134 30.5532C52.5176 30.1974 54.438 30.8284 54.438 30.8284L54.3852 30.5627C53.7371 29.2912 50.9717 29.7562 50.9717 29.7562C51.6919 29.2201 53.9675 29.685 53.9675 29.685C53.9675 29.5901 53.7083 29.3007 53.7083 29.3007C52.8009 28.5084 50.5349 28.9544 50.5349 28.9544C51.5239 28.3756 53.2714 28.8263 53.2714 28.8263L52.7913 28.2522C51.7591 27.3745 49.4306 28.4989 49.4306 28.4989C49.8296 28.003 50.3502 27.6159 50.9429 27.3745C47.6159 26.4589 46.8861 24.528 46.8861 24.528C46.8861 23.5791 45.9644 21.1358 45.9644 21.1358C45.8249 20.7032 45.6176 20.295 45.3498 19.9261L46.2236 20.4005C46.4234 20.1003 46.6832 19.8436 46.987 19.6461C48.4272 18.5739 48 20.2582 48 20.2582C47.0782 21.6482 48.1248 23.0383 48.1248 23.0383V24.0915L50.8133 25.2681C52.8921 25.2349 53.0362 23.1616 53.0362 23.1616L57.357 17.5017L57.1362 17.4211C56.9118 17.3513 56.7062 17.2322 56.535 17.0728C56.3637 16.9135 56.2311 16.7179 56.1472 16.5007C56.9633 17.1839 58.3364 17.0558 58.3364 17.0558C58.7253 16.8945 61.3082 17.0558 61.3082 17.0558C62.6515 17.0433 63.9578 17.4909 65.0049 18.3225C63.5742 13.5925 58.3604 14.1618 58.3604 14.1618ZM58.6917 12.4491C60.3432 12.5108 60.9577 13.4596 60.9577 13.4596C60.2546 13.1203 59.4713 12.976 58.6917 13.0421V12.4491ZM48.7297 17.8101C48.7297 17.8101 48.5713 14.8592 51.8503 13.6731C50.7012 14.654 49.8433 15.9248 49.3682 17.3499C49.3682 17.3499 51.183 19.2476 50.7557 20.8417C50.7557 20.8417 50.3572 18.6261 48.7297 17.8101ZM52.1432 24.1437C52.1432 24.1437 51.7447 24.6798 51.5287 24.7272C51.5287 24.7272 52.0616 24.1532 51.7687 23.897C51.7687 23.897 51.5911 23.4226 50.5877 24.2054C50.5877 24.2054 51.0342 23.3562 51.6631 23.451C51.6631 23.451 52.4744 23.47 52.1432 24.1437ZM54.7693 19.9593L54.6925 19.2619C54.6925 19.2619 53.185 17.6014 55.2254 17.3642L55.3022 19.1954C55.3022 19.1954 55.1582 19.8549 54.7693 19.9593ZM57.3378 16.254C57.3378 16.254 55.4942 16.3774 55.3022 14.6552C55.3022 14.6552 55.3022 13.2319 56.536 12.8666C56.536 12.8666 55.1822 14.641 56.4112 15.3573C56.4112 15.3573 56.4112 15.7986 59.4358 15.8318C59.4358 15.8318 61.3562 15.8318 61.9419 16.4628C60.4149 16.2764 58.8756 16.2066 57.3378 16.254V16.254Z" fill="#F4B12F"/>
</svg>
